<svg width="30" height="30" viewBox="0 0 30 30" fill="none" xmlns="http://www.w3.org/2000/svg">
<g clip-path="url(#clip0_601_229)">
<path d="M29.9841 15.2806C29.9841 14.0515 29.8821 13.1546 29.6612 12.2245H15.2988V17.772H23.7292C23.5593 19.1506 22.6414 21.2268 20.6018 22.6219L20.5732 22.8076L25.1143 26.2454L25.4289 26.2761C28.3184 23.6683 29.9841 19.8315 29.9841 15.2806Z" fill="#4285F4"/>
<path d="M15.2989 29.8971C19.4291 29.8971 22.8964 28.5683 25.4291 26.2762L20.6019 22.622C19.3101 23.5024 17.5764 24.1169 15.2989 24.1169C11.2536 24.1169 7.82024 21.5093 6.59634 17.905L6.41694 17.9199L1.69499 21.491L1.63324 21.6587C4.14877 26.5419 9.31587 29.8971 15.2989 29.8971Z" fill="#34A853"/>
<path d="M6.59628 17.905C6.27334 16.9749 6.08645 15.9782 6.08645 14.9485C6.08645 13.9187 6.27334 12.9221 6.57929 11.992L6.57073 11.7939L1.78962 8.16553L1.63319 8.23824C0.596426 10.2646 0.00152588 12.5401 0.00152588 14.9485C0.00152588 17.3569 0.596426 19.6323 1.63319 21.6587L6.59628 17.905Z" fill="#FBBC05"/>
<path d="M15.2988 5.78004C18.1713 5.78004 20.1089 6.99252 21.2137 8.00576L25.5309 3.8866C22.8795 1.47824 19.429 0 15.2988 0C9.31585 0 4.14876 3.35508 1.63324 8.23821L6.57933 11.992C7.82022 8.38775 11.2536 5.78004 15.2988 5.78004Z" fill="#EB4335"/>
</g>
<defs>
<clipPath id="clip0_601_229">
<rect width="30" height="30" fill="white"/>
</clipPath>
</defs>
</svg>
