<svg width="162" height="209" viewBox="0 0 162 209" fill="none" xmlns="http://www.w3.org/2000/svg">
<path d="M147.792 207.5H7C4.23858 207.5 2 205.261 2 202.5V130.438V53.375V7C2 4.23858 4.23858 2 7.00001 2H147.792C150.553 2 152.792 4.23858 152.792 7V202.5C152.792 205.261 150.553 207.5 147.792 207.5Z" fill="#818CF8" stroke="#18181B" stroke-width="3"/>
<path d="M17.5991 12.5385C17.5991 159.601 17.5991 196.763 17.5991 196.962" stroke="#18181B" stroke-width="3"/>
<rect x="40.6953" y="25.5926" width="89" height="11.7715" stroke="#18181B"/>
<path d="M45.384 31.4784H125.384" stroke="#18181B"/>
<path d="M63.889 120.803C54.3282 120.803 46.5776 113.053 46.5776 103.492C46.5776 93.9312 54.3282 86.1806 63.889 86.1806M106.502 120.803C116.063 120.803 123.813 113.053 123.813 103.492C123.813 93.9312 116.063 86.1806 106.502 86.1806" stroke="#18181B" stroke-width="2"/>
<path d="M103.395 91.0634C103.395 81.0122 95.2466 72.8642 85.1955 72.8642C75.1444 72.8642 66.9963 81.0122 66.9963 91.0633" stroke="#18181B" stroke-width="2"/>
<path d="M62.3108 121.494V144.379H108.08V121.494" stroke="#18181B" stroke-width="2"/>
<path d="M40.1954 154.379H130.195" stroke="#18181B"/>
<path d="M50.1954 159.379H120.195" stroke="#18181B"/>
<rect x="66.6378" y="78.4457" width="6.79957" height="126.779" transform="rotate(-45 66.6378 78.4457)" fill="#896B49" stroke="#18181B"/>
<path d="M66.1955 50.0037C70.7277 54.5359 73.4973 59.9434 74.3292 65.0045C75.1612 70.0667 74.0529 74.7395 70.8962 77.8961C67.7395 81.0528 63.0668 82.1612 58.0046 81.3291C52.9434 80.4973 47.536 77.7277 43.0037 73.1954C38.4715 68.6632 35.7019 63.2557 34.87 58.1945C34.038 53.1324 35.1463 48.4596 38.303 45.3029C41.4597 42.1463 46.1324 41.0379 51.1946 41.87C56.2558 42.7018 61.6632 45.4714 66.1955 50.0037Z" fill="#896B49" stroke="#18181B"/>
<path d="M62.8297 52.6126C66.2125 55.9954 68.2758 60.0279 68.895 63.7952C69.5144 67.5635 68.687 71.0235 66.3552 73.3552C64.0235 75.687 60.5635 76.5144 56.7952 75.895C53.0279 75.2758 48.9955 73.2125 45.6127 69.8297C42.2299 66.4469 40.1665 62.4144 39.5473 58.6471C38.928 54.8788 39.7554 51.4188 42.0871 49.0871C44.4189 46.7554 47.8789 45.9279 51.6472 46.5473C55.4145 47.1665 59.4469 49.2298 62.8297 52.6126Z" fill="#B38B6D" stroke="#18181B"/>
</svg>
